<svg id="레이어_1" data-name="레이어 1" xmlns="http://www.w3.org/2000/svg" viewBox="0 0 62.59 62.71">
  <defs>
    <style>
      .cls-1 {
        fill: #6d4799;
      }

      .cls-2 {
        fill: #4d4d9e;
      }

      .cls-3 {
        fill: #49459a;
      }

      .cls-4 {
        fill: #714f9d;
      }

      .cls-5 {
        fill: #367ec2;
      }

      .cls-6 {
        fill: #54c2e9;
      }

      .cls-7 {
        fill: #54b663;
      }

      .cls-8 {
        fill: #43add0;
      }

      .cls-9 {
        fill: #478ccb;
      }

      .cls-10 {
        fill: #d45d38;
      }

      .cls-11 {
        fill: #e73a68;
      }

      .cls-12 {
        fill: #d0305c;
      }

      .cls-13 {
        fill: #ec6b43;
      }

      .cls-14 {
        fill: #cfda40;
      }

      .cls-15 {
        fill: #dccc4e;
      }

      .cls-16 {
        fill: #fff;
      }
    </style>
  </defs>
  <g>
    <g>
      <path class="cls-1" d="M214.78,334.61h12.5a14,14,0,0,0,5.48-1.11l-18-30.59Z" transform="translate(-178.76 -272.02)"/>
      <polygon class="cls-2" points="36.02 0 17.87 0 36.02 30.89 36.02 0"/>
      <path class="cls-3" d="M215.06,272h-.28v30.89l18,30.59.32-.14Z" transform="translate(-178.76 -272.02)"/>
      <polygon class="cls-4" points="17.87 0 17.59 0 35.98 62.58 36.02 62.58 36.02 30.89 17.87 0"/>
      <path class="cls-5" d="M241.35,320.54v-4.25l-7.86-13.38v30.26a14.09,14.09,0,0,0,7.86-12.63" transform="translate(-178.76 -272.02)"/>
      <path class="cls-6" d="M215.34,272l18.15,30.89V273.47a13.91,13.91,0,0,0-6.21-1.45Z" transform="translate(-178.76 -272.02)"/>
      <path class="cls-7" d="M235.68,274.8l5.55,9.45a14.09,14.09,0,0,0-5.55-9.45" transform="translate(-178.76 -272.02)"/>
      <path class="cls-8" d="M233.49,273.47v29.44h0l7.86,13.38V297.83l-7-23.92c-.27-.16-.55-.31-.83-.44" transform="translate(-178.76 -272.02)"/>
      <path class="cls-9" d="M215.34,272h-.28l18,61.34.41-.19V302.91Z" transform="translate(-178.76 -272.02)"/>
      <rect class="cls-9" x="54.73" y="30.88" height="30.26"/>
      <polygon class="cls-9" points="36.58 0 54.73 30.89 54.73 30.88 36.58 0"/>
      <rect class="cls-9" x="54.73" y="30.88"/>
      <path class="cls-7" d="M241.23,284.25l-5.56-9.45a13.68,13.68,0,0,0-1.35-.89l7,23.92V286.09a14,14,0,0,0-.12-1.84" transform="translate(-178.76 -272.02)"/>
      <polygon class="cls-7" points="56.91 2.78 56.91 2.78 62.47 12.22 56.91 2.78"/>
      <polygon class="cls-10" points="17.31 62.58 35.95 62.58 17.31 30.89 17.31 62.58"/>
      <path class="cls-11" d="M192.83,272a14,14,0,0,0-11.44,5.9l14.69,25V272Z" transform="translate(-178.76 -272.02)"/>
      <polygon class="cls-12" points="17.31 0 17.31 30.89 35.95 62.58 35.98 62.58 17.59 0 17.31 0"/>
      <path class="cls-13" d="M196.08,334.61v-31.7l-14.69-25a13.07,13.07,0,0,0-1.34,2.29l16,54.4Z" transform="translate(-178.76 -272.02)"/>
      <path class="cls-14" d="M178.76,320.54a14.07,14.07,0,0,0,14.07,14.07H196l-17.24-29.33Z" transform="translate(-178.76 -272.02)"/>
      <path class="cls-15" d="M178.76,305.28,196,334.61h0l-16-54.4a14.09,14.09,0,0,0-1.29,5.88Z" transform="translate(-178.76 -272.02)"/>
      <path class="cls-16" d="M196,334.61l0,.13Z" transform="translate(-178.76 -272.02)"/>
      <polygon class="cls-16" points="35.98 62.58 36.02 62.71 36.02 62.58 35.98 62.58"/>
      <polygon class="cls-16" points="17.31 62.58 17.31 62.71 36.02 62.71 35.95 62.58 17.31 62.58"/>
      <polygon class="cls-16" points="35.95 62.58 36.02 62.71 35.98 62.58 35.95 62.58"/>
      <polygon class="cls-16" points="17.27 62.58 17.31 62.71 17.31 62.58 17.27 62.58"/>
      <polygon class="cls-16" points="17.24 62.58 17.31 62.71 17.27 62.58 17.24 62.58"/>
    </g>
    <path class="cls-16" d="M195.66,316.14l4.73-5.67c3.27,2.71,6.7,4.42,10.86,4.42,3.28,0,5.25-1.3,5.25-3.43v-.1c0-2-1.24-3.07-7.33-4.63-7.33-1.87-12.06-3.9-12.06-11.12v-.11c0-6.6,5.3-11,12.74-11a21.12,21.12,0,0,1,13.52,4.63l-4.16,6c-3.23-2.24-6.4-3.59-9.47-3.59s-4.67,1.41-4.67,3.17v.11c0,2.39,1.55,3.17,7.85,4.78,7.38,1.92,11.54,4.58,11.54,10.92v.1c0,7.23-5.51,11.28-13.36,11.28a23.14,23.14,0,0,1-15.44-5.82" transform="translate(-178.76 -272.02)"/>
  </g>
</svg>
