<?xml version="1.0" encoding="utf-8"?>
<!-- Generator: Adobe Illustrator 25.1.0, SVG Export Plug-In . SVG Version: 6.00 Build 0)  -->
<svg version="1.1" id="Layer_1" xmlns="http://www.w3.org/2000/svg" xmlns:xlink="http://www.w3.org/1999/xlink" x="0px" y="0px"
	 viewBox="0 0 512 512" style="enable-background:new 0 0 512 512;" xml:space="preserve">
<style type="text/css">
	.st0{fill:#62BB46;}
</style>
<g>
	<path class="st0" d="M426.1,251.5h-2.25v-13.4h2.48c5.55,0,10.39,0.71,10.39,6.79C436.72,250.77,431.41,251.5,426.1,251.5
		 M456.56,269.82c-1.77-2.3-4.76-4.28-5.43-4.7c-0.66-0.45,0-0.64,0-0.64c12.05-3.55,17.25-8.58,17.25-20.52
		c0-19.89-17.01-27.43-37.09-27.43H392.2v78.95h31.65v-25.34c0,0,0.21-0.89,0.8,0l13.96,25.34h37.32L456.56,269.82z M350.79,266.16
		h24.93v-20.52h-24.93v-7.54h27.3v-21.58H318.2v78.96h60.82V273.9h-28.23V266.16z M266.33,252.43c-1.3,3.88-2.25,12.39-2.25,12.39
		c-0.13,0.62-0.93,0.67-1.14,0c0,0-0.94-8.51-2.24-12.39l-11.81-35.91h-33.77l34.49,78.96h27.4l34.47-78.96H277.7L266.33,252.43z
		 M174.11,266.89l4.23-16.02c0.91-3.25,1.53-7.91,1.53-7.91c0.13-0.72,1.13-0.72,1.3,0.04c0.2,1.09,0.69,4.45,1.64,7.79l4.31,16.1
		H174.11z M162.42,216.52l-30.95,78.96h34.26l2.58-9.84h24.47l2.95,9.84h34.25l-31.77-78.96H162.42z M94.4,240.19
		c0,10.55,1.41,13.5,2.72,20.1c0,0-0.11,1.15-0.95,0c-0.84-1.14-29.05-43.77-29.05-43.77H36.06v78.96H67v-25.65
		c0-9.45-0.94-10.36-2-15.81c0,0,0.12-1.12,0.95,0c0.83,1.11,28.46,41.46,28.46,41.46h30.94v-78.96H94.4V240.19z"/>
</g>
</svg>
